# xmcd
#
# Track frame offsets: 
#        150
#        17499
#        27534
#        48213
#        62690
#        77418
#        95435
#        113974
#        131017
#        148844
#        164846
#        178181
#        191984
#        211065
#        229755
#        247691
#        263936
#        281168
#        297228
#        313555
#
# Disc length: 4388 seconds
#
# Revision: 0
# Processed by: cddbd v1.5.2PL0 Copyright (c) Steve Scherf et al.
# Submitted via: ExactAudioCopy v0.99pb4
#
DISCID=27112214
DTITLE=Various Artist - Foute CD Volume 10
DYEAR=2011
DGENRE=Pop
TTITLE0=Abba - Dancing Queen
TTITLE1=Linda De Suza - Une Fille De Tous Les Pays
TTITLE2=Boney M. - Ma Baker
TTITLE3=Dolly Dots - (Tell It All About) Boys
TTITLE4=Gebroeders Ko - Boten Anna
TTITLE5=Dr. Alban - It's My Life
TTITLE6=Captain Jack - Captain Jack
TTITLE7=K3 - Mamasé!
TTITLE8=Gompie - Alice, Who The X Is Alice?
TTITLE9=Luc Steeno - Hij Speelde Accordeon
TTITLE10=Willy Sommers - Zeven Anjers, Zeven Rozen
TTITLE11=Tina Charles - I Love To Love
TTITLE12=G.G. Anderson - African Baby
TTITLE13=Bandolero - Paris Latino
TTITLE14=Bros - When Will I Be Famous?
TTITLE15=Def Dames Dope - Don't Be Silly
TTITLE16=Reel 2 Real - I Like To Move It
TTITLE17=O-Zone - Dragostea Din Teï
TTITLE18=Tom Waes - Dos Cervezas
TTITLE19=Lee Towers - You Never Walk Alone
EXTD=
EXTT0=
EXTT1=
EXTT2=
EXTT3=
EXTT4=
EXTT5=
EXTT6=
EXTT7=
EXTT8=
EXTT9=
EXTT10=
EXTT11=
EXTT12=
EXTT13=
EXTT14=
EXTT15=
EXTT16=
EXTT17=
EXTT18=
EXTT19=
PLAYORDER=
